<svg xmlns="http://www.w3.org/2000/svg" xmlns:xlink="http://www.w3.org/1999/xlink" version="1.1" width="256" height="256" viewBox="0 0 256 256" xml:space="preserve">
<g style="stroke: none; stroke-width: 0; stroke-dasharray: none; stroke-linecap: butt; stroke-linejoin: miter; stroke-miterlimit: 10; fill: none; fill-rule: nonzero; opacity: 1;" transform="translate(1.4065934065934016 1.4065934065934016) scale(2.81 2.81)">
	<path d="M 79.223 82.222 h -18.2 c -1.657 0 -3 -1.343 -3 -3 s 1.343 -3 3 -3 h 15.2 V 61.022 c 0 -1.657 1.343 -3 3 -3 s 3 1.343 3 3 v 18.199 C 82.223 80.879 80.88 82.222 79.223 82.222 z" style="stroke: none; stroke-width: 1; stroke-dasharray: none; stroke-linecap: butt; stroke-linejoin: miter; stroke-miterlimit: 10; fill: rgb(0,0,0); fill-rule: nonzero; opacity: 1;" transform=" matrix(1 0 0 1 0 0) " stroke-linecap="round"/>
	<path d="M 28.978 82.222 h -18.2 c -1.657 0 -3 -1.343 -3 -3 V 61.022 c 0 -1.657 1.343 -3 3 -3 s 3 1.343 3 3 v 15.199 h 15.2 c 1.657 0 3 1.343 3 3 S 30.634 82.222 28.978 82.222 z" style="stroke: none; stroke-width: 1; stroke-dasharray: none; stroke-linecap: butt; stroke-linejoin: miter; stroke-miterlimit: 10; fill: rgb(0,0,0); fill-rule: nonzero; opacity: 1;" transform=" matrix(1 0 0 1 0 0) " stroke-linecap="round"/>
	<path d="M 10.778 31.978 c -1.657 0 -3 -1.343 -3 -3 v -18.2 c 0 -1.657 1.343 -3 3 -3 h 18.2 c 1.657 0 3 1.343 3 3 s -1.343 3 -3 3 h -15.2 v 15.2 C 13.778 30.634 12.435 31.978 10.778 31.978 z" style="stroke: none; stroke-width: 1; stroke-dasharray: none; stroke-linecap: butt; stroke-linejoin: miter; stroke-miterlimit: 10; fill: rgb(0,0,0); fill-rule: nonzero; opacity: 1;" transform=" matrix(1 0 0 1 0 0) " stroke-linecap="round"/>
	<path d="M 79.223 31.978 c -1.657 0 -3 -1.343 -3 -3 v -15.2 h -15.2 c -1.657 0 -3 -1.343 -3 -3 s 1.343 -3 3 -3 h 18.2 c 1.657 0 3 1.343 3 3 v 18.2 C 82.223 30.634 80.88 31.978 79.223 31.978 z" style="stroke: none; stroke-width: 1; stroke-dasharray: none; stroke-linecap: butt; stroke-linejoin: miter; stroke-miterlimit: 10; fill: rgb(0,0,0); fill-rule: nonzero; opacity: 1;" transform=" matrix(1 0 0 1 0 0) " stroke-linecap="round"/>
	<path d="M 87 48 H 3 c -1.657 0 -3 -1.343 -3 -3 c 0 -1.657 1.343 -3 3 -3 h 84 c 1.657 0 3 1.343 3 3 C 90 46.657 88.657 48 87 48 z" style="stroke: none; stroke-width: 1; stroke-dasharray: none; stroke-linecap: butt; stroke-linejoin: miter; stroke-miterlimit: 10; fill: rgb(0,0,0); fill-rule: nonzero; opacity: 1;" transform=" matrix(1 0 0 1 0 0) " stroke-linecap="round"/>
</g>
</svg>