<svg width="375" height="812" viewBox="0 0 375 812" fill="none" xmlns="http://www.w3.org/2000/svg">
<g clip-path="url(#clip0_6_2451)">
<rect width="375" height="812" fill="#0067EB"/>
<path d="M64.9805 88L75.8265 64.03H79.4985L90.4805 88H86.0265L83.1025 81.268L84.8705 82.458H70.4885L72.3245 81.268L69.4005 88H64.9805ZM77.6285 68.722L72.8345 80.078L71.9505 79.024H83.3745L82.6605 80.078L77.7645 68.722H77.6285ZM108.243 88.34C106.769 88.34 105.409 88.17 104.163 87.83C102.939 87.4673 101.907 86.9687 101.069 86.334L102.259 83.478C103.12 84.0673 104.072 84.5207 105.115 84.838C106.157 85.1553 107.211 85.314 108.277 85.314C109.41 85.314 110.249 85.1213 110.793 84.736C111.359 84.3507 111.643 83.8293 111.643 83.172C111.643 82.6507 111.461 82.2427 111.099 81.948C110.759 81.6307 110.203 81.3927 109.433 81.234L106.033 80.588C104.582 80.2707 103.471 79.7267 102.701 78.956C101.953 78.1853 101.579 77.1767 101.579 75.93C101.579 74.8647 101.862 73.924 102.429 73.108C103.018 72.292 103.845 71.6573 104.911 71.204C105.999 70.728 107.268 70.49 108.719 70.49C109.988 70.49 111.178 70.66 112.289 71C113.422 71.34 114.374 71.85 115.145 72.53L113.921 75.284C113.218 74.7173 112.413 74.2753 111.507 73.958C110.6 73.6407 109.716 73.482 108.855 73.482C107.676 73.482 106.815 73.6973 106.271 74.128C105.727 74.536 105.455 75.0687 105.455 75.726C105.455 76.2247 105.613 76.644 105.931 76.984C106.271 77.3013 106.792 77.5393 107.495 77.698L110.895 78.344C112.413 78.6387 113.558 79.16 114.329 79.908C115.122 80.6333 115.519 81.6307 115.519 82.9C115.519 84.0333 115.213 85.008 114.601 85.824C113.989 86.64 113.139 87.2633 112.051 87.694C110.963 88.1247 109.693 88.34 108.243 88.34ZM125.344 88.34C123.236 88.34 121.66 87.762 120.618 86.606C119.575 85.45 119.054 83.682 119.054 81.302V70.83H123.304V81.268C123.304 82.5373 123.564 83.478 124.086 84.09C124.607 84.6793 125.4 84.974 126.466 84.974C127.667 84.974 128.642 84.566 129.39 83.75C130.16 82.934 130.546 81.8573 130.546 80.52V70.83H134.796V88H130.648V84.498H131.124C130.625 85.722 129.866 86.674 128.846 87.354C127.848 88.0113 126.681 88.34 125.344 88.34ZM139.41 95.344V75.114C139.41 74.4113 139.387 73.6973 139.342 72.972C139.296 72.2467 139.228 71.5327 139.138 70.83H143.252L143.626 74.434H143.252C143.592 73.2327 144.306 72.2807 145.394 71.578C146.504 70.8527 147.785 70.49 149.236 70.49C150.754 70.49 152.08 70.8527 153.214 71.578C154.347 72.2807 155.231 73.3007 155.866 74.638C156.5 75.9527 156.818 77.5393 156.818 79.398C156.818 81.2567 156.5 82.8547 155.866 84.192C155.231 85.5293 154.347 86.5607 153.214 87.286C152.08 87.9887 150.754 88.34 149.236 88.34C147.808 88.34 146.55 87.9887 145.462 87.286C144.374 86.5833 143.648 85.6427 143.286 84.464H143.66V95.344H139.41ZM148.046 85.076C149.406 85.076 150.494 84.6113 151.31 83.682C152.126 82.73 152.534 81.302 152.534 79.398C152.534 77.494 152.126 76.0773 151.31 75.148C150.494 74.2187 149.406 73.754 148.046 73.754C146.708 73.754 145.632 74.2187 144.816 75.148C144 76.0773 143.592 77.494 143.592 79.398C143.592 81.302 144 82.73 144.816 83.682C145.632 84.6113 146.708 85.076 148.046 85.076ZM168.79 88.34C165.911 88.34 163.656 87.5467 162.024 85.96C160.392 84.3733 159.576 82.1973 159.576 79.432C159.576 77.6413 159.927 76.0773 160.63 74.74C161.332 73.4027 162.307 72.36 163.554 71.612C164.823 70.864 166.296 70.49 167.974 70.49C169.628 70.49 171.011 70.8413 172.122 71.544C173.232 72.2467 174.071 73.2327 174.638 74.502C175.227 75.7713 175.522 77.256 175.522 78.956V80.078H163.01V77.834H172.496L171.918 78.31C171.918 76.7233 171.578 75.5107 170.898 74.672C170.24 73.8333 169.277 73.414 168.008 73.414C166.602 73.414 165.514 73.9127 164.744 74.91C163.996 75.9073 163.622 77.3013 163.622 79.092V79.534C163.622 81.3927 164.075 82.7867 164.982 83.716C165.911 84.6227 167.214 85.076 168.892 85.076C169.866 85.076 170.773 84.9513 171.612 84.702C172.473 84.43 173.289 83.9993 174.06 83.41L175.318 86.266C174.502 86.9233 173.527 87.4333 172.394 87.796C171.26 88.1587 170.059 88.34 168.79 88.34ZM179.087 88V75.216C179.087 74.4907 179.064 73.754 179.019 73.006C178.996 72.258 178.939 71.5327 178.849 70.83H182.963L183.439 75.522H182.759C182.985 74.3887 183.359 73.448 183.881 72.7C184.425 71.952 185.082 71.3967 185.853 71.034C186.623 70.6713 187.462 70.49 188.369 70.49C188.777 70.49 189.105 70.5127 189.355 70.558C189.604 70.5807 189.853 70.6373 190.103 70.728L190.069 74.468C189.638 74.2867 189.264 74.1733 188.947 74.128C188.652 74.0827 188.278 74.06 187.825 74.06C186.85 74.06 186.023 74.264 185.343 74.672C184.685 75.08 184.187 75.6467 183.847 76.372C183.529 77.0973 183.371 77.9247 183.371 78.854V88H179.087ZM201.798 88V62.976H206.048V74.264H205.572C206.094 73.04 206.898 72.1107 207.986 71.476C209.074 70.8187 210.321 70.49 211.726 70.49C213.766 70.49 215.285 71.068 216.282 72.224C217.28 73.3573 217.778 75.0913 217.778 77.426V88H213.528V77.63C213.528 76.2927 213.268 75.3293 212.746 74.74C212.248 74.128 211.443 73.822 210.332 73.822C209.04 73.822 207.998 74.23 207.204 75.046C206.434 75.8393 206.048 76.9047 206.048 78.242V88H201.798ZM230.581 88.34C227.702 88.34 225.447 87.5467 223.815 85.96C222.183 84.3733 221.367 82.1973 221.367 79.432C221.367 77.6413 221.718 76.0773 222.421 74.74C223.123 73.4027 224.098 72.36 225.345 71.612C226.614 70.864 228.087 70.49 229.765 70.49C231.419 70.49 232.802 70.8413 233.913 71.544C235.023 72.2467 235.862 73.2327 236.429 74.502C237.018 75.7713 237.313 77.256 237.313 78.956V80.078H224.801V77.834H234.287L233.709 78.31C233.709 76.7233 233.369 75.5107 232.689 74.672C232.031 73.8333 231.068 73.414 229.799 73.414C228.393 73.414 227.305 73.9127 226.535 74.91C225.787 75.9073 225.413 77.3013 225.413 79.092V79.534C225.413 81.3927 225.866 82.7867 226.773 83.716C227.702 84.6227 229.005 85.076 230.683 85.076C231.657 85.076 232.564 84.9513 233.403 84.702C234.264 84.43 235.08 83.9993 235.851 83.41L237.109 86.266C236.293 86.9233 235.318 87.4333 234.185 87.796C233.051 88.1587 231.85 88.34 230.581 88.34ZM240.912 88V62.976H245.162V88H240.912ZM249.777 95.344V75.114C249.777 74.4113 249.754 73.6973 249.709 72.972C249.664 72.2467 249.596 71.5327 249.505 70.83H253.619L253.993 74.434H253.619C253.959 73.2327 254.673 72.2807 255.761 71.578C256.872 70.8527 258.152 70.49 259.603 70.49C261.122 70.49 262.448 70.8527 263.581 71.578C264.714 72.2807 265.598 73.3007 266.233 74.638C266.868 75.9527 267.185 77.5393 267.185 79.398C267.185 81.2567 266.868 82.8547 266.233 84.192C265.598 85.5293 264.714 86.5607 263.581 87.286C262.448 87.9887 261.122 88.34 259.603 88.34C258.175 88.34 256.917 87.9887 255.829 87.286C254.741 86.5833 254.016 85.6427 253.653 84.464H254.027V95.344H249.777ZM258.413 85.076C259.773 85.076 260.861 84.6113 261.677 83.682C262.493 82.73 262.901 81.302 262.901 79.398C262.901 77.494 262.493 76.0773 261.677 75.148C260.861 74.2187 259.773 73.754 258.413 73.754C257.076 73.754 255.999 74.2187 255.183 75.148C254.367 76.0773 253.959 77.494 253.959 79.398C253.959 81.302 254.367 82.73 255.183 83.682C255.999 84.6113 257.076 85.076 258.413 85.076ZM271.851 88V74.026H268.553V70.83H273.041L271.851 71.918V69.3C271.851 67.1693 272.395 65.56 273.483 64.472C274.593 63.384 276.214 62.84 278.345 62.84C278.843 62.84 279.365 62.874 279.909 62.942C280.475 63.01 280.963 63.1347 281.371 63.316V66.648C281.076 66.5347 280.725 66.444 280.317 66.376C279.909 66.308 279.512 66.274 279.127 66.274C278.537 66.274 278.005 66.3873 277.529 66.614C277.075 66.8407 276.713 67.192 276.441 67.668C276.191 68.1213 276.067 68.7333 276.067 69.504V71.578L275.455 70.83H280.589V74.026H276.101V88H271.851ZM289.4 88.34C287.292 88.34 285.717 87.762 284.674 86.606C283.632 85.45 283.11 83.682 283.11 81.302V70.83H287.36V81.268C287.36 82.5373 287.621 83.478 288.142 84.09C288.664 84.6793 289.457 84.974 290.522 84.974C291.724 84.974 292.698 84.566 293.446 83.75C294.217 82.934 294.602 81.8573 294.602 80.52V70.83H298.852V88H294.704V84.498H295.18C294.682 85.722 293.922 86.674 292.902 87.354C291.905 88.0113 290.738 88.34 289.4 88.34ZM303.466 88V62.976H307.716V88H303.466ZM58.6988 131.34C57.2028 131.34 55.8882 130.989 54.7548 130.286C53.6215 129.561 52.7375 128.529 52.1028 127.192C51.4682 125.855 51.1508 124.257 51.1508 122.398C51.1508 120.539 51.4682 118.953 52.1028 117.638C52.7375 116.301 53.6215 115.281 54.7548 114.578C55.8882 113.853 57.2028 113.49 58.6988 113.49C60.1495 113.49 61.4188 113.853 62.5068 114.578C63.6175 115.281 64.3542 116.233 64.7168 117.434H64.3428L64.7168 113.83H68.7968C68.7288 114.533 68.6608 115.247 68.5928 115.972C68.5475 116.697 68.5248 117.411 68.5248 118.114V131H64.3088L64.2748 127.464H64.6828C64.3202 128.643 63.5835 129.583 62.4728 130.286C61.3622 130.989 60.1042 131.34 58.6988 131.34ZM59.8888 128.076C61.2262 128.076 62.3028 127.611 63.1188 126.682C63.9348 125.73 64.3428 124.302 64.3428 122.398C64.3428 120.494 63.9348 119.077 63.1188 118.148C62.3028 117.219 61.2262 116.754 59.8888 116.754C58.5515 116.754 57.4748 117.219 56.6588 118.148C55.8428 119.077 55.4348 120.494 55.4348 122.398C55.4348 124.302 55.8315 125.73 56.6248 126.682C57.4408 127.611 58.5288 128.076 59.8888 128.076ZM73.1528 138.344V118.114C73.1528 117.411 73.1302 116.697 73.0848 115.972C73.0395 115.247 72.9715 114.533 72.8808 113.83H76.9948L77.3688 117.434H76.9948C77.3348 116.233 78.0488 115.281 79.1368 114.578C80.2475 113.853 81.5282 113.49 82.9788 113.49C84.4975 113.49 85.8235 113.853 86.9568 114.578C88.0902 115.281 88.9742 116.301 89.6088 117.638C90.2435 118.953 90.5608 120.539 90.5608 122.398C90.5608 124.257 90.2435 125.855 89.6088 127.192C88.9742 128.529 88.0902 129.561 86.9568 130.286C85.8235 130.989 84.4975 131.34 82.9788 131.34C81.5508 131.34 80.2928 130.989 79.2048 130.286C78.1168 129.583 77.3915 128.643 77.0288 127.464H77.4028V138.344H73.1528ZM81.7888 128.076C83.1488 128.076 84.2368 127.611 85.0528 126.682C85.8688 125.73 86.2768 124.302 86.2768 122.398C86.2768 120.494 85.8688 119.077 85.0528 118.148C84.2368 117.219 83.1488 116.754 81.7888 116.754C80.4515 116.754 79.3748 117.219 78.5588 118.148C77.7428 119.077 77.3348 120.494 77.3348 122.398C77.3348 124.302 77.7428 125.73 78.5588 126.682C79.3748 127.611 80.4515 128.076 81.7888 128.076ZM94.2368 138.344V118.114C94.2368 117.411 94.2141 116.697 94.1688 115.972C94.1235 115.247 94.0555 114.533 93.9648 113.83H98.0788L98.4528 117.434H98.0788C98.4188 116.233 99.1328 115.281 100.221 114.578C101.331 113.853 102.612 113.49 104.063 113.49C105.581 113.49 106.907 113.853 108.041 114.578C109.174 115.281 110.058 116.301 110.693 117.638C111.327 118.953 111.645 120.539 111.645 122.398C111.645 124.257 111.327 125.855 110.693 127.192C110.058 128.529 109.174 129.561 108.041 130.286C106.907 130.989 105.581 131.34 104.063 131.34C102.635 131.34 101.377 130.989 100.289 130.286C99.2008 129.583 98.4755 128.643 98.1128 127.464H98.4868V138.344H94.2368ZM102.873 128.076C104.233 128.076 105.321 127.611 106.137 126.682C106.953 125.73 107.361 124.302 107.361 122.398C107.361 120.494 106.953 119.077 106.137 118.148C105.321 117.219 104.233 116.754 102.873 116.754C101.535 116.754 100.459 117.219 99.6428 118.148C98.8268 119.077 98.4188 120.494 98.4188 122.398C98.4188 124.302 98.8268 125.73 99.6428 126.682C100.459 127.611 101.535 128.076 102.873 128.076ZM125.807 131V117.026H122.509V113.83H126.997L125.807 114.918V112.3C125.807 110.169 126.351 108.56 127.439 107.472C128.55 106.384 130.17 105.84 132.301 105.84C132.8 105.84 133.321 105.874 133.865 105.942C134.432 106.01 134.919 106.135 135.327 106.316V109.648C135.032 109.535 134.681 109.444 134.273 109.376C133.865 109.308 133.468 109.274 133.083 109.274C132.494 109.274 131.961 109.387 131.485 109.614C131.032 109.841 130.669 110.192 130.397 110.668C130.148 111.121 130.023 111.733 130.023 112.504V114.578L129.411 113.83H134.545V117.026H130.057V131H125.807ZM145.033 131.34C142.154 131.34 139.899 130.547 138.267 128.96C136.635 127.373 135.819 125.197 135.819 122.432C135.819 120.641 136.17 119.077 136.873 117.74C137.575 116.403 138.55 115.36 139.797 114.612C141.066 113.864 142.539 113.49 144.217 113.49C145.871 113.49 147.254 113.841 148.365 114.544C149.475 115.247 150.314 116.233 150.881 117.502C151.47 118.771 151.765 120.256 151.765 121.956V123.078H139.253V120.834H148.739L148.161 121.31C148.161 119.723 147.821 118.511 147.141 117.672C146.483 116.833 145.52 116.414 144.251 116.414C142.845 116.414 141.757 116.913 140.987 117.91C140.239 118.907 139.865 120.301 139.865 122.092V122.534C139.865 124.393 140.318 125.787 141.225 126.716C142.154 127.623 143.457 128.076 145.135 128.076C146.109 128.076 147.016 127.951 147.855 127.702C148.716 127.43 149.532 126.999 150.303 126.41L151.561 129.266C150.745 129.923 149.77 130.433 148.637 130.796C147.503 131.159 146.302 131.34 145.033 131.34ZM161.994 131.34C160.498 131.34 159.183 130.989 158.05 130.286C156.916 129.561 156.032 128.529 155.398 127.192C154.763 125.855 154.446 124.257 154.446 122.398C154.446 120.539 154.763 118.953 155.398 117.638C156.032 116.301 156.916 115.281 158.05 114.578C159.183 113.853 160.498 113.49 161.994 113.49C163.444 113.49 164.714 113.853 165.802 114.578C166.912 115.281 167.649 116.233 168.012 117.434H167.638L168.012 113.83H172.092C172.024 114.533 171.956 115.247 171.888 115.972C171.842 116.697 171.82 117.411 171.82 118.114V131H167.604L167.57 127.464H167.978C167.615 128.643 166.878 129.583 165.768 130.286C164.657 130.989 163.399 131.34 161.994 131.34ZM163.184 128.076C164.521 128.076 165.598 127.611 166.414 126.682C167.23 125.73 167.638 124.302 167.638 122.398C167.638 120.494 167.23 119.077 166.414 118.148C165.598 117.219 164.521 116.754 163.184 116.754C161.846 116.754 160.77 117.219 159.954 118.148C159.138 119.077 158.73 120.494 158.73 122.398C158.73 124.302 159.126 125.73 159.92 126.682C160.736 127.611 161.824 128.076 163.184 128.076ZM183.792 131.34C181.752 131.34 180.21 130.807 179.168 129.742C178.125 128.677 177.604 127.079 177.604 124.948V117.026H174.306V113.83H177.604V109.444L181.854 108.356V113.83H186.444V117.026H181.854V124.676C181.854 125.855 182.08 126.682 182.534 127.158C182.987 127.634 183.61 127.872 184.404 127.872C184.834 127.872 185.197 127.838 185.492 127.77C185.809 127.702 186.115 127.611 186.41 127.498V130.864C186.024 131.023 185.594 131.136 185.118 131.204C184.664 131.295 184.222 131.34 183.792 131.34ZM195.519 131.34C193.411 131.34 191.835 130.762 190.793 129.606C189.75 128.45 189.229 126.682 189.229 124.302V113.83H193.479V124.268C193.479 125.537 193.739 126.478 194.261 127.09C194.782 127.679 195.575 127.974 196.641 127.974C197.842 127.974 198.817 127.566 199.565 126.75C200.335 125.934 200.721 124.857 200.721 123.52V113.83H204.971V131H200.823V127.498H201.299C200.8 128.722 200.041 129.674 199.021 130.354C198.023 131.011 196.856 131.34 195.519 131.34ZM209.55 131V118.216C209.55 117.491 209.528 116.754 209.482 116.006C209.46 115.258 209.403 114.533 209.312 113.83H213.426L213.902 118.522H213.222C213.449 117.389 213.823 116.448 214.344 115.7C214.888 114.952 215.546 114.397 216.316 114.034C217.087 113.671 217.926 113.49 218.832 113.49C219.24 113.49 219.569 113.513 219.818 113.558C220.068 113.581 220.317 113.637 220.566 113.728L220.532 117.468C220.102 117.287 219.728 117.173 219.41 117.128C219.116 117.083 218.742 117.06 218.288 117.06C217.314 117.06 216.486 117.264 215.806 117.672C215.149 118.08 214.65 118.647 214.31 119.372C213.993 120.097 213.834 120.925 213.834 121.854V131H209.55ZM230.962 131.34C228.084 131.34 225.828 130.547 224.196 128.96C222.564 127.373 221.748 125.197 221.748 122.432C221.748 120.641 222.1 119.077 222.802 117.74C223.505 116.403 224.48 115.36 225.726 114.612C226.996 113.864 228.469 113.49 230.146 113.49C231.801 113.49 233.184 113.841 234.294 114.544C235.405 115.247 236.244 116.233 236.81 117.502C237.4 118.771 237.694 120.256 237.694 121.956V123.078H225.182V120.834H234.668L234.09 121.31C234.09 119.723 233.75 118.511 233.07 117.672C232.413 116.833 231.45 116.414 230.18 116.414C228.775 116.414 227.687 116.913 226.916 117.91C226.168 118.907 225.794 120.301 225.794 122.092V122.534C225.794 124.393 226.248 125.787 227.154 126.716C228.084 127.623 229.387 128.076 231.064 128.076C232.039 128.076 232.946 127.951 233.784 127.702C234.646 127.43 235.462 126.999 236.232 126.41L237.49 129.266C236.674 129.923 235.7 130.433 234.566 130.796C233.433 131.159 232.232 131.34 230.962 131.34ZM258.58 138.616C256.993 138.616 255.554 138.446 254.262 138.106C252.992 137.766 251.859 137.245 250.862 136.542L251.78 133.482C252.437 133.913 253.117 134.264 253.82 134.536C254.522 134.808 255.248 135.012 255.996 135.148C256.744 135.284 257.503 135.352 258.274 135.352C259.86 135.352 261.039 134.955 261.81 134.162C262.603 133.391 263 132.281 263 130.83V126.716H263.34C262.977 127.895 262.24 128.835 261.13 129.538C260.042 130.241 258.784 130.592 257.356 130.592C255.814 130.592 254.466 130.252 253.31 129.572C252.176 128.869 251.292 127.872 250.658 126.58C250.023 125.288 249.706 123.769 249.706 122.024C249.706 120.279 250.023 118.771 250.658 117.502C251.292 116.21 252.176 115.224 253.31 114.544C254.466 113.841 255.814 113.49 257.356 113.49C258.806 113.49 260.064 113.841 261.13 114.544C262.218 115.224 262.943 116.153 263.306 117.332L263 117.128L263.34 113.83H267.454C267.363 114.533 267.295 115.247 267.25 115.972C267.204 116.697 267.182 117.411 267.182 118.114V130.32C267.182 133.017 266.445 135.069 264.972 136.474C263.521 137.902 261.39 138.616 258.58 138.616ZM258.512 127.328C259.872 127.328 260.948 126.875 261.742 125.968C262.558 125.039 262.966 123.724 262.966 122.024C262.966 120.324 262.558 119.021 261.742 118.114C260.948 117.207 259.872 116.754 258.512 116.754C257.129 116.754 256.03 117.207 255.214 118.114C254.398 119.021 253.99 120.324 253.99 122.024C253.99 123.724 254.398 125.039 255.214 125.968C256.03 126.875 257.129 127.328 258.512 127.328ZM279.526 131.34C277.758 131.34 276.228 130.977 274.936 130.252C273.644 129.527 272.635 128.495 271.91 127.158C271.207 125.821 270.856 124.234 270.856 122.398C270.856 120.562 271.207 118.987 271.91 117.672C272.635 116.335 273.644 115.303 274.936 114.578C276.228 113.853 277.758 113.49 279.526 113.49C281.294 113.49 282.824 113.853 284.116 114.578C285.431 115.303 286.439 116.335 287.142 117.672C287.867 118.987 288.23 120.562 288.23 122.398C288.23 124.234 287.867 125.821 287.142 127.158C286.439 128.495 285.431 129.527 284.116 130.252C282.824 130.977 281.294 131.34 279.526 131.34ZM279.526 128.076C280.863 128.076 281.929 127.611 282.722 126.682C283.515 125.73 283.912 124.302 283.912 122.398C283.912 120.494 283.515 119.077 282.722 118.148C281.929 117.219 280.863 116.754 279.526 116.754C278.189 116.754 277.123 117.219 276.33 118.148C275.537 119.077 275.14 120.494 275.14 122.398C275.14 124.302 275.537 125.73 276.33 126.682C277.123 127.611 278.189 128.076 279.526 128.076ZM300.191 131.34C297.312 131.34 295.057 130.547 293.425 128.96C291.793 127.373 290.977 125.197 290.977 122.432C290.977 120.641 291.328 119.077 292.031 117.74C292.734 116.403 293.708 115.36 294.955 114.612C296.224 113.864 297.698 113.49 299.375 113.49C301.03 113.49 302.412 113.841 303.523 114.544C304.634 115.247 305.472 116.233 306.039 117.502C306.628 118.771 306.923 120.256 306.923 121.956V123.078H294.411V120.834H303.897L303.319 121.31C303.319 119.723 302.979 118.511 302.299 117.672C301.642 116.833 300.678 116.414 299.409 116.414C298.004 116.414 296.916 116.913 296.145 117.91C295.397 118.907 295.023 120.301 295.023 122.092V122.534C295.023 124.393 295.476 125.787 296.383 126.716C297.312 127.623 298.616 128.076 300.293 128.076C301.268 128.076 302.174 127.951 303.013 127.702C303.874 127.43 304.69 126.999 305.461 126.41L306.719 129.266C305.903 129.923 304.928 130.433 303.795 130.796C302.662 131.159 301.46 131.34 300.191 131.34ZM316.642 131.34C315.169 131.34 313.809 131.17 312.562 130.83C311.338 130.467 310.307 129.969 309.468 129.334L310.658 126.478C311.519 127.067 312.471 127.521 313.514 127.838C314.557 128.155 315.611 128.314 316.676 128.314C317.809 128.314 318.648 128.121 319.192 127.736C319.759 127.351 320.042 126.829 320.042 126.172C320.042 125.651 319.861 125.243 319.498 124.948C319.158 124.631 318.603 124.393 317.832 124.234L314.432 123.588C312.981 123.271 311.871 122.727 311.1 121.956C310.352 121.185 309.978 120.177 309.978 118.93C309.978 117.865 310.261 116.924 310.828 116.108C311.417 115.292 312.245 114.657 313.31 114.204C314.398 113.728 315.667 113.49 317.118 113.49C318.387 113.49 319.577 113.66 320.688 114C321.821 114.34 322.773 114.85 323.544 115.53L322.32 118.284C321.617 117.717 320.813 117.275 319.906 116.958C318.999 116.641 318.115 116.482 317.254 116.482C316.075 116.482 315.214 116.697 314.67 117.128C314.126 117.536 313.854 118.069 313.854 118.726C313.854 119.225 314.013 119.644 314.33 119.984C314.67 120.301 315.191 120.539 315.894 120.698L319.294 121.344C320.813 121.639 321.957 122.16 322.728 122.908C323.521 123.633 323.918 124.631 323.918 125.9C323.918 127.033 323.612 128.008 323 128.824C322.388 129.64 321.538 130.263 320.45 130.694C319.362 131.125 318.093 131.34 316.642 131.34ZM154.401 174V148.976H158.651V160.264H158.175C158.696 159.04 159.501 158.111 160.589 157.476C161.677 156.819 162.924 156.49 164.329 156.49C166.369 156.49 167.888 157.068 168.885 158.224C169.882 159.357 170.381 161.091 170.381 163.426V174H166.131V163.63C166.131 162.293 165.87 161.329 165.349 160.74C164.85 160.128 164.046 159.822 162.935 159.822C161.643 159.822 160.6 160.23 159.807 161.046C159.036 161.839 158.651 162.905 158.651 164.242V174H154.401ZM183.183 174.34C180.305 174.34 178.049 173.547 176.417 171.96C174.785 170.373 173.969 168.197 173.969 165.432C173.969 163.641 174.321 162.077 175.023 160.74C175.726 159.403 176.701 158.36 177.947 157.612C179.217 156.864 180.69 156.49 182.367 156.49C184.022 156.49 185.405 156.841 186.515 157.544C187.626 158.247 188.465 159.233 189.031 160.502C189.621 161.771 189.915 163.256 189.915 164.956V166.078H177.403V163.834H186.889L186.311 164.31C186.311 162.723 185.971 161.511 185.291 160.672C184.634 159.833 183.671 159.414 182.401 159.414C180.996 159.414 179.908 159.913 179.137 160.91C178.389 161.907 178.015 163.301 178.015 165.092V165.534C178.015 167.393 178.469 168.787 179.375 169.716C180.305 170.623 181.608 171.076 183.285 171.076C184.26 171.076 185.167 170.951 186.005 170.702C186.867 170.43 187.683 169.999 188.453 169.41L189.711 172.266C188.895 172.923 187.921 173.433 186.787 173.796C185.654 174.159 184.453 174.34 183.183 174.34ZM193.48 174V161.216C193.48 160.491 193.457 159.754 193.412 159.006C193.389 158.258 193.333 157.533 193.242 156.83H197.356L197.832 161.522H197.152C197.379 160.389 197.753 159.448 198.274 158.7C198.818 157.952 199.475 157.397 200.246 157.034C201.017 156.671 201.855 156.49 202.762 156.49C203.17 156.49 203.499 156.513 203.748 156.558C203.997 156.581 204.247 156.637 204.496 156.728L204.462 160.468C204.031 160.287 203.657 160.173 203.34 160.128C203.045 160.083 202.671 160.06 202.218 160.06C201.243 160.06 200.416 160.264 199.736 160.672C199.079 161.08 198.58 161.647 198.24 162.372C197.923 163.097 197.764 163.925 197.764 164.854V174H193.48ZM214.892 174.34C212.014 174.34 209.758 173.547 208.126 171.96C206.494 170.373 205.678 168.197 205.678 165.432C205.678 163.641 206.03 162.077 206.732 160.74C207.435 159.403 208.41 158.36 209.656 157.612C210.926 156.864 212.399 156.49 214.076 156.49C215.731 156.49 217.114 156.841 218.224 157.544C219.335 158.247 220.174 159.233 220.74 160.502C221.33 161.771 221.624 163.256 221.624 164.956V166.078H209.112V163.834H218.598L218.02 164.31C218.02 162.723 217.68 161.511 217 160.672C216.343 159.833 215.38 159.414 214.11 159.414C212.705 159.414 211.617 159.913 210.846 160.91C210.098 161.907 209.724 163.301 209.724 165.092V165.534C209.724 167.393 210.178 168.787 211.084 169.716C212.014 170.623 213.317 171.076 214.994 171.076C215.969 171.076 216.876 170.951 217.714 170.702C218.576 170.43 219.392 169.999 220.162 169.41L221.42 172.266C220.604 172.923 219.63 173.433 218.496 173.796C217.363 174.159 216.162 174.34 214.892 174.34Z" fill="white"/>
<g clip-path="url(#clip1_6_2451)" filter="url(#filter0_dddd_6_2451)">
<path fill-rule="evenodd" clip-rule="evenodd" d="M76.866 211H297.917C322.938 211 343.221 231.283 343.221 256.304V354.075C344.131 354.396 344.784 355.264 344.784 356.285V421.116C344.784 422.136 344.131 423.004 343.221 423.326V818.696C343.221 843.717 322.938 864 297.917 864H76.866C51.8455 864 31.5622 843.717 31.5622 818.696V433.48C30.6521 433.159 30 432.291 30 431.27V393.778C30 392.757 30.6521 391.889 31.5622 391.568V377.241C30.6521 376.919 30 376.051 30 375.031V337.538C30 336.518 30.6521 335.65 31.5622 335.328V316.315C30.6521 315.994 30 315.126 30 314.105V294.578C30 293.557 30.6521 292.689 31.5622 292.368V256.304C31.5622 231.283 51.8455 211 76.866 211Z" fill="black"/>
<mask id="mask0_6_2451" style="mask-type:alpha" maskUnits="userSpaceOnUse" x="40" y="220" width="294" height="635">
<path fill-rule="evenodd" clip-rule="evenodd" d="M40.9842 254.415C40.9518 255.04 40.9354 255.67 40.9354 256.304V818.696C40.9354 838.54 57.0221 854.627 76.866 854.627H297.917C317.761 854.627 333.848 838.54 333.848 818.696V256.304C333.848 256.226 333.848 256.149 333.847 256.071C333.722 236.335 317.684 220.373 297.917 220.373H253.329C250.638 221.32 248.708 223.885 248.708 226.901C248.708 236.453 240.965 244.197 231.412 244.197H143.371C133.819 244.197 126.075 236.453 126.075 226.901C126.075 223.885 124.146 221.32 121.454 220.373H76.866C67.9127 220.373 59.7242 223.648 53.433 229.065C51.0095 231.152 48.8675 233.557 47.0718 236.215C43.5275 241.461 41.3324 247.693 40.9842 254.415Z" fill="white"/>
</mask>
<g mask="url(#mask0_6_2451)">
<path d="M41.6846 220.43H332.4V849.816H41.6846V220.43Z" fill="white"/>
</g>
</g>
</g>
<defs>
<filter id="filter0_dddd_6_2451" x="12.131" y="211" width="350.522" height="693.205" filterUnits="userSpaceOnUse" color-interpolation-filters="sRGB">
<feFlood flood-opacity="0" result="BackgroundImageFix"/>
<feColorMatrix in="SourceAlpha" type="matrix" values="0 0 0 0 0 0 0 0 0 0 0 0 0 0 0 0 0 0 127 0" result="hardAlpha"/>
<feOffset dy="2.76726"/>
<feGaussianBlur stdDeviation="1.1069"/>
<feColorMatrix type="matrix" values="0 0 0 0 0 0 0 0 0 0 0 0 0 0 0 0 0 0 0.030926 0"/>
<feBlend mode="normal" in2="BackgroundImageFix" result="effect1_dropShadow_6_2451"/>
<feColorMatrix in="SourceAlpha" type="matrix" values="0 0 0 0 0 0 0 0 0 0 0 0 0 0 0 0 0 0 127 0" result="hardAlpha"/>
<feOffset dy="6.6501"/>
<feGaussianBlur stdDeviation="2.66004"/>
<feColorMatrix type="matrix" values="0 0 0 0 0 0 0 0 0 0 0 0 0 0 0 0 0 0 0.0444282 0"/>
<feBlend mode="normal" in2="effect1_dropShadow_6_2451" result="effect2_dropShadow_6_2451"/>
<feColorMatrix in="SourceAlpha" type="matrix" values="0 0 0 0 0 0 0 0 0 0 0 0 0 0 0 0 0 0 127 0" result="hardAlpha"/>
<feOffset dy="12.5216"/>
<feGaussianBlur stdDeviation="5.00862"/>
<feColorMatrix type="matrix" values="0 0 0 0 0 0 0 0 0 0 0 0 0 0 0 0 0 0 0.055 0"/>
<feBlend mode="normal" in2="effect2_dropShadow_6_2451" result="effect3_dropShadow_6_2451"/>
<feColorMatrix in="SourceAlpha" type="matrix" values="0 0 0 0 0 0 0 0 0 0 0 0 0 0 0 0 0 0 127 0" result="hardAlpha"/>
<feOffset dy="22.3363"/>
<feGaussianBlur stdDeviation="8.93452"/>
<feColorMatrix type="matrix" values="0 0 0 0 0 0 0 0 0 0 0 0 0 0 0 0 0 0 0.0655718 0"/>
<feBlend mode="normal" in2="effect3_dropShadow_6_2451" result="effect4_dropShadow_6_2451"/>
<feBlend mode="normal" in="SourceGraphic" in2="effect4_dropShadow_6_2451" result="shape"/>
</filter>
<clipPath id="clip0_6_2451">
<rect width="375" height="812" fill="white"/>
</clipPath>
<clipPath id="clip1_6_2451">
<rect width="314.784" height="653" fill="white" transform="translate(30 211)"/>
</clipPath>
</defs>
</svg>
