<?xml version="1.0" standalone="no"?>
<!DOCTYPE svg PUBLIC "-//W3C//DTD SVG 20010904//EN"
 "http://www.w3.org/TR/2001/REC-SVG-20010904/DTD/svg10.dtd">
<svg version="1.0" xmlns="http://www.w3.org/2000/svg"
 width="1024.000000pt" height="1024.000000pt" viewBox="0 0 1024.000000 1024.000000"
 preserveAspectRatio="xMidYMid meet">

<g transform="translate(0.000000,1024.000000) scale(0.100000,-0.100000)"
fill="#000000" stroke="none">
<path d="M6314 9001 c-31 -14 -72 -67 -84 -109 -13 -49 -13 -66 4 -105 12 -30
11 -35 -5 -56 l-19 -24 -40 46 c-22 24 -60 54 -85 66 -57 27 -147 37 -201 22
-34 -9 -47 -8 -70 4 -38 19 -104 29 -144 20 -36 -8 -100 -60 -100 -81 0 -22
-16 -17 -34 11 -41 62 -171 104 -261 84 -65 -14 -89 -14 -153 -1 -74 16 -132
1 -172 -45 -17 -18 -30 -42 -30 -52 0 -30 -11 -31 -35 -2 -13 15 -47 40 -77
56 -112 61 -333 36 -425 -47 l-22 -20 -55 27 c-52 25 -64 27 -149 23 -74 -3
-104 -10 -155 -33 -76 -34 -151 -111 -172 -176 -7 -24 -15 -47 -17 -51 -3 -6
-77 24 -92 38 -2 2 8 14 24 26 85 67 69 206 -31 264 -116 68 -368 29 -486 -75
-21 -18 -50 -58 -65 -89 -66 -135 -9 -321 121 -389 l28 -15 -35 -29 c-43 -35
-61 -85 -55 -151 10 -98 84 -149 228 -156 186 -9 352 62 419 179 l28 49 44
-35 c24 -19 66 -42 94 -51 102 -35 251 -14 333 46 l42 30 43 -22 c60 -31 162
-31 238 0 45 18 61 21 83 12 41 -15 131 -12 170 7 29 13 40 14 61 5 38 -17
115 -15 155 6 60 30 80 72 80 167 0 107 10 205 22 205 5 0 8 -65 6 -149 -3
-139 -2 -151 18 -178 12 -15 36 -37 54 -47 42 -25 133 -26 178 -3 31 17 33 17
63 -5 25 -19 43 -23 104 -23 70 0 76 2 109 34 39 38 48 70 66 235 6 55 13 102
15 105 15 15 16 -22 1 -141 -8 -73 -13 -144 -9 -158 23 -91 126 -139 226 -105
47 16 48 16 78 -9 75 -64 194 -59 248 10 20 25 24 27 32 12 61 -110 219 -185
368 -176 128 7 191 61 191 163 0 45 5 58 29 84 59 63 68 228 18 314 -61 103
-155 158 -284 165 -93 5 -166 -13 -220 -54 l-33 -25 0 23 c0 13 -4 29 -9 37
-6 9 1 27 20 55 54 76 38 186 -34 240 -31 23 -145 33 -183 17z m141 -74 c32
-16 44 -39 45 -80 0 -81 -91 -124 -167 -78 -37 23 -50 66 -33 117 19 57 88 75
155 41z m-2776 -95 c66 -31 77 -122 19 -165 -25 -19 -32 -19 -95 -8 -38 7 -88
9 -112 5 -55 -9 -96 -42 -87 -71 9 -29 25 -34 143 -43 176 -15 230 -40 276
-129 70 -139 3 -279 -163 -342 -61 -23 -192 -36 -264 -25 -89 14 -137 87 -102
155 21 39 52 47 127 31 111 -24 219 3 219 54 0 37 -23 48 -118 57 -184 19
-251 48 -293 131 -67 131 -12 267 136 334 94 43 240 51 314 16z m1479 -48 c14
-16 27 -23 30 -17 29 45 175 64 238 30 41 -21 79 -67 95 -114 12 -38 8 -361
-6 -394 -15 -38 -94 -50 -145 -24 -39 20 -44 45 -37 194 7 140 0 169 -45 185
-35 12 -82 -7 -97 -40 -6 -15 -11 -81 -11 -159 0 -127 -1 -135 -24 -162 -21
-24 -32 -28 -75 -28 -88 0 -89 4 -97 256 -9 285 1 314 106 305 33 -3 50 -11
68 -32z m-415 5 c48 -13 106 -64 125 -109 8 -19 18 -86 22 -148 7 -100 11
-115 34 -143 67 -79 -7 -172 -113 -141 -21 7 -44 19 -50 26 -11 12 -19 10 -56
-16 -35 -25 -56 -31 -112 -35 -123 -8 -193 50 -196 162 -2 105 77 166 241 182
65 6 76 18 46 47 -22 23 -92 20 -159 -6 l-56 -21 -27 20 c-78 58 -36 146 86
179 58 16 165 17 215 3z m1026 0 c17 -6 36 -20 42 -30 10 -19 11 -19 49 1 79
40 197 18 253 -49 44 -52 52 -98 39 -209 -32 -274 -43 -302 -113 -302 -49 0
-95 23 -104 51 -4 12 1 84 11 160 13 108 15 145 6 164 -24 52 -97 58 -128 10
-10 -15 -22 -71 -30 -142 -20 -181 -21 -182 -58 -200 -41 -19 -93 -12 -124 18
-27 25 -27 39 -2 292 19 193 27 230 52 240 23 9 74 7 107 -4z m-1494 -49 c53
-20 79 -81 59 -135 -12 -30 -60 -47 -102 -35 -65 18 -101 13 -133 -19 -23 -24
-29 -38 -29 -75 0 -58 17 -94 51 -112 40 -20 68 -18 121 11 57 30 91 32 118 5
77 -77 -5 -177 -166 -202 -163 -25 -283 66 -315 239 -23 121 23 232 120 290
30 18 73 37 95 42 44 11 143 6 181 -9z m2156 -56 c10 -9 19 -30 19 -46 0 -54
-71 -433 -86 -455 -30 -47 -156 -24 -170 31 -6 26 61 439 77 468 21 38 118 40
160 2z m432 -61 c54 -17 110 -61 133 -104 58 -114 24 -269 -60 -269 -17 0 -82
14 -145 30 -62 17 -118 30 -122 30 -18 0 -8 -27 19 -53 38 -37 85 -49 158 -41
58 6 62 5 82 -21 26 -32 27 -55 7 -94 -18 -36 -60 -51 -140 -51 -128 0 -235
56 -289 150 -28 50 -31 63 -31 140 0 97 23 161 78 218 85 88 178 107 310 65z
m-2473 -78 c0 -2 -11 -21 -25 -42 -22 -31 -32 -37 -65 -39 -22 -1 -60 -14 -84
-28 -25 -14 -51 -23 -60 -20 -31 12 -33 85 -2 97 8 3 32 1 52 -5 50 -13 107
-5 141 21 27 20 43 26 43 16z"/>
<path d="M4614 8440 c-28 -11 -37 -26 -29 -49 8 -26 42 -33 82 -16 27 12 33
19 33 44 0 28 -3 31 -32 30 -18 0 -43 -4 -54 -9z"/>
<path d="M6714 8467 c-28 -25 -26 -47 4 -47 10 0 41 -6 70 -14 29 -7 55 -10
58 -5 10 17 -9 56 -36 72 -38 23 -64 21 -96 -6z"/>
<path d="M5280 7533 c-161 -16 -340 -72 -525 -164 -172 -85 -294 -171 -439
-309 -165 -158 -299 -326 -498 -625 -151 -226 -187 -274 -224 -297 -30 -18
-58 -50 -90 -100 -25 -40 -72 -112 -104 -159 -31 -47 -60 -101 -64 -120 -6
-32 -13 -37 -154 -106 -359 -175 -791 -477 -914 -639 -57 -76 -57 -109 1 -168
118 -120 462 -246 881 -322 142 -25 158 -30 203 -64 49 -38 104 -60 148 -60
20 0 29 -12 53 -62 43 -94 170 -209 300 -273 7 -3 6 -7 -2 -11 -32 -15 -72
-58 -84 -91 l-13 -36 -120 6 c-66 3 -176 16 -243 27 -68 12 -130 19 -138 16
-27 -10 -9 -128 47 -310 27 -88 29 -100 15 -115 -43 -48 -59 -160 -34 -243 14
-48 86 -130 128 -148 16 -7 30 -16 30 -19 0 -4 -11 -41 -25 -82 -37 -108 -82
-291 -96 -391 -11 -78 -10 -90 5 -113 22 -34 87 -80 142 -101 60 -23 76 -9 73
60 -3 50 -3 51 28 54 18 2 79 -15 151 -42 66 -24 136 -48 156 -51 19 -4 39
-12 44 -19 5 -6 30 -67 57 -135 l47 -123 -22 -40 c-18 -32 -20 -44 -12 -64 15
-32 42 -37 196 -32 100 3 139 7 157 20 18 11 40 55 78 149 29 74 56 137 60
141 4 4 86 5 184 1 l177 -6 73 -126 c109 -189 88 -175 261 -179 123 -4 150 -2
171 12 31 20 32 48 4 93 l-21 34 27 97 c15 53 32 102 39 108 6 6 43 17 81 24
39 7 126 30 195 52 69 22 155 42 193 45 l67 6 -6 -56 c-7 -63 4 -87 40 -87 34
0 118 44 160 83 l39 37 -5 92 c-3 51 -18 147 -32 213 -33 144 -129 437 -184
555 -32 69 -40 101 -45 168 -7 87 -19 122 -42 122 -7 0 -19 -15 -25 -34 -25
-78 -83 -119 -165 -119 -61 0 -90 14 -115 56 -24 39 -25 49 -3 45 26 -4 28 28
4 58 -47 59 -19 159 59 212 29 20 44 23 92 20 38 -3 65 -11 79 -24 30 -26 59
-92 59 -135 0 -43 7 -51 31 -39 11 6 19 24 21 47 l3 37 122 42 c189 66 213 78
213 109 0 28 -16 66 -34 77 -22 15 -58 7 -210 -48 l-156 -56 -52 22 c-41 18
-64 21 -106 17 -47 -5 -58 -2 -102 25 -27 17 -52 39 -55 49 -4 11 -22 31 -41
45 l-34 26 63 48 c34 26 83 70 110 98 l47 52 278 4 c251 4 398 16 557 44 43 8
56 30 32 53 -8 8 -19 25 -26 37 -10 18 -19 22 -44 19 -35 -4 -87 25 -87 48 0
8 -7 18 -16 23 -8 5 -18 28 -21 51 -5 37 -3 43 16 48 11 3 21 9 21 13 0 14 54
64 88 82 18 10 30 13 27 8 -3 -5 1 -7 8 -4 8 3 17 14 20 25 3 12 1 17 -6 12
-6 -4 -8 0 -4 9 3 10 -3 20 -19 28 -13 8 -24 17 -24 21 0 9 29 1 47 -14 7 -5
22 -7 32 -4 13 3 29 -5 47 -24 15 -15 40 -31 56 -34 16 -4 42 -18 58 -31 16
-14 32 -25 35 -25 19 2 25 -1 25 -13 0 -9 -8 -12 -22 -9 -13 2 -4 -6 20 -18
37 -20 44 -21 52 -9 7 11 10 12 10 2 0 -7 4 -11 9 -7 5 3 13 0 17 -6 4 -7 3
-9 -4 -5 -13 8 -19 -2 -26 -38 -7 -40 -24 -57 -51 -50 -37 9 -63 -11 -61 -46
2 -28 -1 -31 -53 -47 -42 -14 -59 -25 -69 -46 -8 -16 -12 -30 -10 -33 2 -2 44
7 94 20 49 14 96 26 104 28 13 3 15 -46 15 -387 l0 -390 -50 -3 c-34 -2 -57
-10 -72 -24 -23 -21 -23 -26 -23 -258 0 -232 0 -237 23 -258 15 -14 38 -22 72
-24 l50 -3 3 -115 c2 -123 10 -152 49 -169 34 -16 1222 -15 1257 0 57 26 56
18 56 736 l0 659 -189 188 -189 188 -391 -4 -392 -3 6 23 c8 32 -22 84 -113
192 -150 180 -333 345 -727 656 -39 30 -40 33 -37 83 3 30 -5 89 -17 139 -11
48 -25 113 -31 144 -8 38 -23 72 -47 104 -42 55 -68 149 -107 389 -41 247 -42
268 -14 297 20 23 36 27 123 37 210 22 431 97 579 195 101 67 136 106 136 150
0 71 -41 96 -262 160 -202 59 -268 87 -440 184 -263 149 -439 220 -591 241
-77 11 -98 11 -167 4z m282 -87 c118 -35 259 -99 447 -205 194 -110 240 -129
437 -186 179 -52 234 -77 234 -104 0 -30 -94 -107 -191 -155 -148 -75 -400
-146 -514 -146 -32 0 -33 1 -40 58 -8 67 -40 142 -62 142 -12 0 -14 -7 -9 -27
20 -85 19 -203 -2 -203 -4 0 -19 26 -34 58 -27 57 -130 172 -155 172 -24 0
-13 -36 18 -66 41 -37 91 -117 112 -174 9 -25 23 -110 32 -190 14 -122 40
-285 71 -438 l7 -34 -39 20 c-251 126 -663 239 -1009 278 -182 20 -551 23
-715 5 -123 -13 -384 -56 -415 -67 -20 -8 -18 -4 16 46 9 14 63 95 119 180
167 254 293 414 440 560 236 236 465 376 744 457 210 60 350 65 508 19z m-633
-1250 c202 -27 389 -69 582 -132 85 -28 81 -21 94 -140 11 -90 -8 -166 -50
-202 -49 -44 -93 -47 -221 -18 -200 46 -427 86 -604 107 -220 26 -642 36 -820
20 -160 -15 -378 -46 -454 -66 -32 -9 -61 -14 -63 -11 -2 2 16 32 41 67 25 35
64 97 87 137 51 90 82 128 121 148 67 35 315 83 538 104 144 13 604 5 749 -14z
m-201 -445 c444 -53 827 -150 1264 -319 123 -48 426 -289 686 -545 145 -143
223 -232 179 -204 -274 176 -822 396 -1302 522 -733 193 -1347 240 -2025 154
-388 -49 -825 -161 -1067 -274 -110 -51 -106 -42 29 67 204 165 467 330 738
462 138 68 169 79 280 100 112 22 308 49 430 60 128 11 623 -3 788 -23z m-457
-428 c-5 -10 -14 -46 -21 -80 -14 -69 -4 -117 31 -149 28 -25 97 -22 151 6
l40 21 24 -26 c50 -55 148 -15 273 112 l84 85 51 -7 c69 -9 316 -58 453 -90
l112 -27 15 -46 c9 -25 16 -47 16 -50 0 -2 -14 8 -31 23 -46 38 -140 83 -212
102 -116 29 -260 1 -375 -74 -92 -61 -185 -189 -198 -275 -4 -21 -7 -38 -8
-38 -2 0 -24 7 -50 16 -47 16 -181 16 -217 0 -13 -6 -18 1 -24 31 -13 69 -67
165 -131 229 -117 117 -264 163 -423 132 -45 -9 -100 -26 -123 -38 -22 -11
-43 -19 -45 -16 -3 2 13 40 35 83 l39 78 79 6 c43 3 166 6 272 7 181 2 192 1
183 -15z m-461 -173 c0 -5 -2 -10 -4 -10 -3 0 -8 5 -11 10 -3 6 -1 10 4 10 6
0 11 -4 11 -10z m210 -46 c102 -30 190 -109 238 -212 23 -49 27 -70 27 -148
-1 -83 -4 -97 -35 -160 -128 -261 -455 -301 -626 -77 -74 98 -97 260 -54 377
65 173 270 273 450 220z m1293 -42 c149 -70 235 -215 225 -377 -11 -174 -150
-328 -318 -352 -74 -11 -171 1 -228 28 -65 32 -148 117 -179 186 -38 83 -44
205 -13 297 68 206 315 311 513 218z m-1760 -89 c-7 -2 -14 -17 -14 -31 -1
-18 -3 -21 -6 -9 -6 24 3 47 19 46 10 0 10 -2 1 -6z m-107 -80 c-25 -163 -16
-255 39 -378 13 -29 21 -56 18 -58 -7 -8 -60 10 -96 32 -142 88 -173 287 -60
393 28 27 66 46 92 47 10 1 12 -9 7 -36z m884 -39 c0 -8 -5 -12 -10 -9 -6 4
-8 11 -5 16 9 14 15 11 15 -7z m1560 -24 c49 -25 89 -83 105 -154 39 -167 -85
-308 -284 -323 l-75 -6 -60 -65 c-137 -146 -330 -245 -570 -291 -476 -92
-1001 -1 -1275 221 -51 41 -121 123 -121 142 0 3 19 -8 43 -24 180 -127 447
-94 605 74 68 73 104 141 128 238 15 59 20 68 47 77 52 19 138 13 187 -11 42
-21 45 -26 52 -73 19 -134 109 -271 227 -347 108 -68 286 -89 406 -48 198 68
311 212 346 437 6 44 17 87 23 95 22 29 111 78 144 78 18 0 51 -9 72 -20z
m-330 -307 c-11 -17 -11 -17 -6 0 3 10 6 24 7 30 0 9 2 9 5 0 3 -7 0 -20 -6
-30z m-791 -6 c0 -21 -1 -21 -9 -2 -12 28 -12 37 0 30 6 -3 10 -16 9 -28z
m2981 -182 c0 -187 22 -209 194 -204 l111 4 0 -260 0 -260 -102 0 c-57 0 -324
1 -594 3 l-491 2 4 403 c2 221 7 408 11 415 6 9 105 12 438 12 l429 0 0 -115z
m-2375 -5 c3 -5 1 -10 -4 -10 -6 0 -11 5 -11 10 0 6 2 10 4 10 3 0 8 -4 11
-10z m69 -301 c14 -11 26 -24 26 -28 0 -5 -22 -11 -50 -13 -38 -4 -73 -20
-157 -71 -59 -36 -153 -89 -207 -118 -93 -49 -98 -53 -74 -61 21 -7 43 0 116
35 49 25 110 57 136 72 44 26 53 27 139 23 51 -2 99 -8 109 -13 15 -9 15 -12
0 -44 -15 -30 -29 -38 -122 -73 -58 -21 -125 -40 -150 -42 -52 -4 -143 -37
-180 -65 -37 -29 -18 -35 36 -12 26 12 51 18 54 14 4 -5 14 -30 23 -56 12 -36
13 -49 4 -51 -7 -2 -31 -9 -54 -15 -51 -14 -56 -31 -10 -31 55 1 104 16 153
50 37 25 223 100 247 100 3 0 10 -21 17 -47 8 -34 23 -59 54 -88 24 -22 52
-56 64 -76 28 -46 89 -89 128 -89 l29 -1 -25 -14 c-36 -21 -149 -19 -208 3
-26 10 -82 42 -124 70 -81 55 -92 59 -104 40 -4 -7 7 -24 28 -42 33 -29 41
-48 113 -286 42 -140 85 -281 95 -312 10 -31 15 -59 12 -63 -20 -20 -184 -78
-308 -110 -432 -108 -948 -91 -1359 45 -125 42 -121 38 -100 99 17 51 17 51
53 46 278 -39 625 -30 885 21 15 3 27 12 27 21 0 8 -25 43 -56 76 -73 81 -150
197 -212 323 -53 105 -127 310 -138 380 l-6 42 64 0 c41 0 76 6 97 17 32 16
35 16 80 -3 50 -22 100 -31 101 -19 1 23 -1 27 -15 27 -40 0 -131 66 -156 112
-8 15 -2 18 50 24 52 6 61 10 71 34 11 27 12 27 153 38 78 6 171 10 207 9 52
-2 73 3 105 22 22 13 78 37 125 53 47 17 101 39 120 49 46 24 62 23 94 -2z
m-1528 -24 c-4 -11 6 -22 29 -36 19 -12 35 -25 35 -30 0 -5 -38 -9 -85 -9 -47
0 -85 4 -85 9 0 15 34 50 65 66 38 19 49 19 41 0z m1596 -55 c45 -13 54 -25
34 -45 -14 -14 -18 -14 -45 0 -17 8 -39 15 -51 15 -11 0 -20 6 -20 14 0 12 9
18 40 25 3 0 22 -4 42 -9z m-2020 -46 c151 -18 461 -23 651 -10 l127 8 0 -45
c0 -72 38 -249 81 -381 65 -200 166 -390 286 -539 30 -38 53 -71 50 -73 -9 -9
-127 -22 -292 -34 -171 -12 -346 -7 -515 16 l-105 14 -48 51 c-45 48 -128 163
-156 216 -10 20 -8 27 22 57 49 49 64 114 43 195 -32 124 -95 183 -199 185
l-62 1 -18 55 c-15 46 -51 189 -73 289 -5 23 -3 23 35 17 22 -3 100 -13 173
-22z m921 -79 c29 -4 47 -11 47 -19 0 -7 10 -25 21 -40 15 -19 18 -31 11 -38
-13 -13 -140 -14 -152 -2 -4 5 -11 32 -15 60 -6 50 -6 51 17 48 13 -2 44 -6
71 -9z m799 -218 c17 -45 17 -47 -2 -57 -15 -8 -21 -8 -25 2 -30 83 -33 97
-22 102 22 9 32 -1 49 -47z m629 -178 c-6 -20 -19 -43 -28 -50 -15 -13 -15
-12 0 18 10 18 17 52 17 76 0 24 3 47 8 51 12 13 14 -57 3 -95z m1347 77 c41
-21 52 -44 52 -103 0 -81 -47 -123 -140 -123 l-50 0 0 -50 c0 -57 -23 -80 -60
-60 -19 10 -20 21 -20 180 0 125 3 170 13 174 24 11 173 -2 205 -18z m327 -2
c60 -31 79 -64 83 -142 3 -56 0 -74 -20 -111 -32 -60 -79 -83 -178 -89 -111
-6 -110 -8 -110 187 0 112 4 161 13 170 19 20 164 10 212 -15z m389 4 c8 -13
8 -23 0 -35 -9 -14 -28 -19 -85 -21 l-75 -3 4 -34 4 -35 59 0 c47 0 60 -4 69
-19 21 -41 -7 -61 -86 -61 -46 0 -54 -11 -54 -82 0 -44 -27 -66 -60 -48 -19
10 -20 21 -20 170 0 199 -5 192 132 188 83 -3 103 -6 112 -20z m-4382 -24 c44
-42 68 -99 68 -166 0 -46 -5 -62 -25 -86 -14 -17 -38 -33 -54 -37 -31 -7 -92
14 -125 43 -34 31 -66 113 -66 172 0 78 8 102 31 95 10 -4 27 -1 36 5 31 19
101 5 135 -26z m2426 -255 c96 -253 153 -482 156 -624 l1 -89 -55 -33 c-30
-18 -59 -33 -65 -33 -6 0 -11 55 -12 153 -4 228 -40 439 -106 615 l-32 87 24
38 25 38 12 -24 c7 -12 30 -70 52 -128z m-2416 -128 c16 -28 15 -36 -8 -148
-19 -86 -27 -163 -31 -284 -7 -191 -6 -191 -89 -115 l-44 41 15 99 c27 179
103 436 128 436 7 0 20 -13 29 -29z m4528 -130 c0 -68 -4 -93 -16 -105 -14
-14 -80 -16 -578 -16 -512 0 -565 2 -577 17 -9 10 -15 49 -17 105 l-4 88 596
0 596 0 0 -89z"/>
<path d="M3982 4894 c-31 -22 -49 -60 -57 -125 -9 -73 8 -134 50 -176 54 -54
121 -38 167 41 18 33 23 55 22 111 -1 78 -19 123 -58 149 -32 20 -95 21 -124
0z m62 -46 c22 -31 20 -52 -7 -84 -27 -32 -58 -27 -75 11 -12 27 -8 50 16 78
21 23 48 21 66 -5z"/>
<path d="M4978 4874 c-60 -32 -88 -166 -54 -249 47 -111 166 -114 212 -7 21
51 22 159 1 199 -35 67 -99 90 -159 57z m52 -34 c39 -39 12 -120 -38 -120 -48
0 -72 81 -36 121 22 25 49 24 74 -1z"/>
<path d="M4401 4487 c-14 -17 10 -52 49 -72 36 -19 113 -19 148 -1 36 19 66
52 57 65 -10 17 -31 13 -71 -14 -46 -31 -72 -31 -115 -2 -55 37 -56 37 -68 24z"/>
<path d="M7025 4184 c-19 -19 -19 -29 1 -48 13 -14 52 -16 274 -16 222 0 261
2 274 16 20 19 20 29 0 48 -22 23 -526 23 -549 0z"/>
<path d="M7026 3984 c-12 -11 -13 -20 -6 -34 9 -17 29 -19 272 -22 145 -1 340
-2 435 0 182 4 196 8 173 53 -10 18 -26 19 -435 19 -371 0 -426 -2 -439 -16z"/>
<path d="M7032 3791 c-8 -4 -12 -19 -10 -32 l3 -24 440 0 440 0 0 30 0 30
-430 2 c-236 2 -436 -1 -443 -6z"/>
<path d="M7050 3406 c0 -25 3 -47 8 -49 4 -3 25 -2 47 2 34 5 40 10 43 34 5
39 -14 57 -59 57 l-39 0 0 -44z"/>
<path d="M7373 3343 l6 -108 42 1 c33 1 48 7 67 29 21 25 24 36 20 88 -6 74
-28 97 -95 97 l-45 0 5 -107z"/>
</g>
</svg>
